<?xml version="1.0" encoding="utf-8"?>
<!-- Generator: Adobe Illustrator 26.0.2, SVG Export Plug-In . SVG Version: 6.00 Build 0)  -->
<svg version="1.1" id="Layer_1" xmlns="http://www.w3.org/2000/svg" xmlns:xlink="http://www.w3.org/1999/xlink" x="0px" y="0px"
	 viewBox="0 0 903.53 252.04" style="enable-background:new 0 0 903.53 252.04;" xml:space="preserve">
<style type="text/css">
	.st0{fill:none;stroke:#DB9C44;stroke-width:10;stroke-miterlimit:10;}
	.st1{fill:#DB9C44;stroke:#DB9C44;stroke-width:3;stroke-miterlimit:10;}
	.st2{fill:#DB9C44;stroke:#DB9C44;stroke-width:4;stroke-miterlimit:10;}
</style>
<g>
	<polyline class="st0" points="419.54,197.63 471.92,197.63 471.92,118.28 423.95,118.28 423.95,176.64 471.92,176.64 	"/>
	<polyline class="st0" points="189.1,181 189.14,118.23 140.53,118.23 140.53,181 	"/>
	<polyline class="st0" points="258.85,113.84 258.85,176.56 210.97,176.56 210.97,113.84 	"/>
	<line class="st0" x1="284.07" y1="181" x2="284.07" y2="27.38"/>
	<line class="st0" x1="305.77" y1="27.38" x2="305.77" y2="181"/>
	<line class="st0" x1="327.58" y1="181" x2="327.58" y2="27.38"/>
	<rect x="354.33" y="118.28" class="st0" width="47.44" height="58.36"/>
	<line class="st0" x1="496.97" y1="113.84" x2="496.97" y2="180.92"/>
	<line class="st0" x1="496.97" y1="94.07" x2="496.97" y2="106.06"/>
	<polyline class="st0" points="572.55,176.64 519.43,176.64 519.43,118.28 572.55,118.28 	"/>
</g>
<g>
	<path class="st1" d="M589.42,144.31c3.34-3.18,11.54-11.86,15.76-16.4c6.13-6.77,9.16-8.28,13.14-8.28c4.78,0,8.2,3.03,15.29,11.46
		c5.65,6.85,18.71,21.42,30.02,31.77l-4.22,4.94c-10.91-9.87-23.89-24.76-28.66-30.73c-6.77-8.28-9.24-11.46-12.5-11.46
		c-3.18,0-5.65,2.63-10.51,8.12c-2.71,3.11-9.16,10.19-12.58,14.01c0.08,1.04-0.24,1.83-0.88,2.23L589.42,144.31z M639.26,112.94
		c4.46,3.26,8.44,7.48,10.91,11.15l-3.03,2.47c-2.31-3.5-6.29-7.96-10.59-11.15L639.26,112.94z M649.05,105.77
		c4.46,3.34,8.28,7.17,10.75,10.99l-2.95,2.55c-2.47-3.74-6.45-7.88-10.51-10.91L649.05,105.77z"/>
	<path class="st1" d="M708.69,142.4c-3.58,9.32-8.84,17.52-14.97,23.57l-4.62-3.03c5.97-5.57,11.15-13.22,14.41-22.45L708.69,142.4z
		 M725.73,130.14v37.66c0,8.68-6.13,8.68-18.87,8.68c-0.32-1.43-0.96-3.74-1.75-5.33c2.31,0.08,4.86,0.08,7.01,0.08h4.62
		c2.23,0,3.26-1.43,3.26-3.34v-37.74h-27.07v-5.33H720v-16.56l7.56,0.4c-0.08,0.8-0.64,1.35-1.83,1.51v14.65h26.91v5.33H725.73z
		 M739.98,139.93c5.81,6.45,12.5,15.76,16.8,23.17l-5.1,2.95c-3.9-7.33-10.91-17.52-16.24-23.65L739.98,139.93z M739.03,107.53
		c3.58,3.18,7.64,8.04,9.95,11.62l-3.03,2.31c-2.31-3.5-6.53-8.68-9.95-11.54L739.03,107.53z M750.49,103.94
		c3.66,3.26,7.8,8.04,10.03,11.54l-3.03,2.39c-2.31-3.5-6.61-8.52-9.95-11.54L750.49,103.94z"/>
	<path class="st1" d="M785.69,117.08h50.64l0.48-0.24l5.41,4.14c-0.24,0.32-0.48,0.56-0.96,0.72c-6.45,29.94-20.3,45.54-44.67,54.78
		c-0.88-1.43-2.47-3.5-3.58-4.7c23.17-8.52,36.55-23.33,41.72-49.21h-49.05V117.08z M846.36,102.83c4.78,0,8.68,3.9,8.68,8.76
		c0,4.78-3.9,8.68-8.68,8.68c-4.86,0-8.76-3.9-8.76-8.68C837.6,106.57,841.66,102.83,846.36,102.83z M852.41,111.59
		c0-3.42-2.71-6.13-6.05-6.13c-3.34,0-6.13,2.71-6.13,6.13c0,3.34,2.79,6.13,6.13,6.13C849.86,117.72,852.41,114.77,852.41,111.59z"
		/>
</g>
<g>
	<path class="st2" d="M53.65,166.17c18.54,2.11,40.21,6.91,53.44,12.14l-2.53,5.9c-11.97-4.97-34.39-10.28-52.93-12.47L53.65,166.17
		z M60.39,140.38c13.4,1.35,30.26,4.55,40.71,7.75l-1.94,5.9c-9.86-3.37-26.89-6.58-40.54-7.92L60.39,140.38z M60.73,114.33
		c14.33,1.52,32.7,4.89,44.34,9.02l-2.44,5.9c-11.63-4.38-29.5-7.67-43.83-9.27L60.73,114.33z"/>
</g>
</svg>
