<?xml version="1.0" encoding="utf-8"?>
<!-- Generator: Adobe Illustrator 26.0.2, SVG Export Plug-In . SVG Version: 6.00 Build 0)  -->
<svg version="1.1" id="Layer_1" xmlns="http://www.w3.org/2000/svg" xmlns:xlink="http://www.w3.org/1999/xlink" x="0px" y="0px"
	 viewBox="0 0 598.96 252.04" style="enable-background:new 0 0 598.96 252.04;" xml:space="preserve">
<style type="text/css">
	.st0{opacity:0.2;}
	.st1{fill:#CCCCCC;}
	.st2{fill:none;stroke:#DB9C44;stroke-width:10;stroke-miterlimit:10;}
</style>
<g class="st0">
	<g>
		<path class="st1" d="M417.19,154.03v-38.59l22.1-21.97V0.3h-3.44v91.75l-22.1,21.97v40.01c-1.53,0.66-2.6,2.17-2.6,3.93
			s1.07,3.27,2.6,3.93v0.36h1.72l0,0l0,0h1.72v-0.36c1.53-0.66,2.59-2.17,2.59-3.93S418.72,154.69,417.19,154.03z"/>
		<path class="st1" d="M564.22,84.54V13.72L550.71,0.3h-4.87l14.93,14.84v69.39c-1.53,0.66-2.6,2.17-2.6,3.93s1.07,3.27,2.6,3.93
			v0.36h3.44V92.4c1.53-0.66,2.59-2.17,2.59-3.93S565.75,85.2,564.22,84.54z"/>
		<path class="st1" d="M534.77,176.72v-73.19L494.91,63.9V34.56h34.45V0.3h-3.44v30.83h-34.45v29.34l-11.12-11.05V20.08l19.9-19.78
			h-4.87L476.9,18.66V46l-28.49-28.32V0.3h-3.44v18.8l31.94,31.74v55.11h-17.15l-18.49,18.37v59.5c-1.53,0.66-2.59,2.17-2.59,3.93
			s1.07,3.27,2.59,3.93v0.36h1.72l0,0l0,0h1.72v-0.36c1.53-0.66,2.6-2.17,2.6-3.93s-1.07-3.27-2.6-3.93v-58.08l16.47-16.37h15.72
			v33.24c-1.53,0.66-2.6,2.17-2.6,3.93s1.07,3.27,2.6,3.93v0.36h1.72l0,0l0,0h1.72v-0.36c1.53-0.66,2.59-2.17,2.59-3.93
			s-1.07-3.27-2.59-3.93v-33.24h14.57V68.74l36.42,36.2v71.78c-1.53,0.66-2.59,2.17-2.59,3.93s1.07,3.27,2.59,3.93v0.36h1.72l0,0
			l0,0h1.72v-0.36c1.53-0.66,2.6-2.17,2.6-3.93C537.37,178.89,536.3,177.38,534.77,176.72z M491.46,105.95h-11.12V54.26l11.12,11.05
			V105.95z"/>
		<path class="st1" d="M401.79,113.64V50.56l28.5-28.33V0.3h-3.44v20.51l-28.5,28.33v64.5c-1.53,0.66-2.59,2.17-2.59,3.93
			s1.07,3.27,2.59,3.93v0.36h1.72l0,0l0,0h1.72v-0.36c1.53-0.66,2.59-2.17,2.59-3.93S403.32,114.3,401.79,113.64z"/>
		<path class="st1" d="M387.97,102.47V0.3h-3.44v100.75l-28.31,28.13v54.64c-1.53,0.66-2.6,2.17-2.6,3.93s1.07,3.27,2.6,3.93v0.36
			h1.72l0,0l0,0h1.72v-0.36c1.53-0.66,2.59-2.17,2.59-3.93s-1.07-3.27-2.59-3.93V130.6L387.97,102.47z"/>
		<path class="st1" d="M345.67,99.24V73.97h18.34V0.3h-3.44v70.25h-14.89v-56.2L331.54,0.3h-4.87l15.56,15.47v54.79h-42.2V0.3h-3.44
			v70.25h-32.47v52.02l54.41,54.08v24.29c-1.53,0.66-2.59,2.17-2.59,3.93s1.07,3.27,2.59,3.93v0.36h3.44v-0.36
			c1.53-0.66,2.59-2.17,2.59-3.93s-1.07-3.27-2.59-3.93v-25.71l-54.41-54.08V73.97h29.02v33.26c-1.53,0.66-2.59,2.17-2.59,3.93
			s1.07,3.27,2.59,3.93v0.36h1.72l0,0l0,0h1.72v-0.36c1.53-0.66,2.6-2.17,2.6-3.93s-1.07-3.27-2.6-3.93V73.97h42.2v25.27
			c-1.53,0.66-2.59,2.17-2.59,3.93s1.07,3.27,2.59,3.93v0.36h1.72l0,0l0,0h1.72v-0.36c1.53-0.66,2.6-2.17,2.6-3.93
			C348.27,101.41,347.2,99.9,345.67,99.24z"/>
		<path class="st1" d="M76.31,0.3v24.32c-1.53,0.66-2.59,2.17-2.59,3.93s1.07,3.27,2.59,3.93v0.36h1.72l0,0l0,0h1.72v-0.36
			c1.53-0.66,2.6-2.17,2.6-3.93s-1.07-3.27-2.6-3.93V0.3H76.31z"/>
		<path class="st1" d="M206.77,107.23V22.87L187.83,4.04V0.3h-3.44v5.16l18.95,18.83v82.94c-1.53,0.66-2.59,2.17-2.59,3.93
			s1.07,3.27,2.59,3.93v0.36h1.72l0,0l0,0h1.72v-0.36c1.53-0.66,2.59-2.17,2.59-3.93S208.3,107.89,206.77,107.23z"/>
		<path class="st1" d="M157.11,23.43L180.39,0.3h-4.87l-21.85,21.72v9.12H137.3V0.3h-3.44v30.83h-20.67V12.7l11.8-11.73V0.3h-4.2
			l-7.6,7.56V0.3h-3.44v10.98L91.22,29.69V60.1H44.58V14.87L58.15,1.39v34.7c-1.53,0.66-2.59,2.17-2.59,3.93s1.07,3.27,2.59,3.93
			v0.36h1.72l0,0l0,0h1.72v-0.36c1.53-0.66,2.59-2.17,2.59-3.93s-1.07-3.27-2.59-3.93V0.3h-7.21L41.14,13.46v50.07h50.08v35.72
			c-1.53,0.66-2.59,2.17-2.59,3.93s1.07,3.27,2.59,3.93v0.36h1.72l0,0l0,0h1.72v-0.36c1.53-0.66,2.59-2.17,2.59-3.93
			s-1.07-3.27-2.59-3.93V63.53h23.12v30.01c-1.53,0.66-2.59,2.17-2.59,3.93s1.07,3.27,2.59,3.93v0.36h1.72l0,0l0,0h1.72v-0.36
			c1.53-0.66,2.59-2.17,2.59-3.93s-1.07-3.27-2.59-3.93V60.1H94.66V31.11l15.09-14.99v18.44h24.11V45.6
			c-1.53,0.66-2.59,2.17-2.59,3.93c0,1.76,1.07,3.27,2.59,3.93v0.36h1.72l0,0l0,0h1.72v-0.36c1.53-0.66,2.59-2.17,2.59-3.93
			c0-1.76-1.07-3.27-2.59-3.93V34.56h16.36v53.66l-15.79,15.69v50.12c-1.53,0.66-2.59,2.17-2.59,3.93s1.07,3.27,2.59,3.93v0.36h1.72
			l0,0l0,0h1.72v-0.36c1.53-0.66,2.59-2.17,2.59-3.93s-1.07-3.27-2.59-3.93v-48.7l12.34-12.27v20.58c-1.53,0.66-2.59,2.17-2.59,3.93
			s1.07,3.27,2.59,3.93v0.36h1.72l0,0l0,0h1.72v-0.36c1.53-0.66,2.59-2.17,2.59-3.93s-1.07-3.27-2.59-3.93V89.63l27.27-27.11V31.13
			h-27.27v-7.7H157.11z M180.94,34.56v26.55l-23.83,23.68V34.56H180.94z"/>
		<path class="st1" d="M27.93,47.31V0.3h-3.44v45.59L6.93,63.34v30.2c-1.53,0.66-2.6,2.17-2.6,3.93s1.07,3.27,2.6,3.93v0.36h1.72
			l0,0l0,0h1.72v-0.36c1.53-0.66,2.59-2.17,2.59-3.93s-1.07-3.27-2.59-3.93V64.76L27.93,47.31z"/>
		<path class="st1" d="M36.75,77.69V0.3H33.3v77.39c-1.53,0.66-2.59,2.17-2.59,3.93s1.07,3.27,2.59,3.93v0.36h3.44v-0.36
			c1.53-0.66,2.59-2.17,2.59-3.93C39.34,79.86,38.27,78.35,36.75,77.69z"/>
		<path class="st1" d="M255.49,39.7V0.3h-3.44v37.98L240,50.25V0.3h-3.44v53.38L220.83,69.3v66.46c-1.53,0.66-2.6,2.17-2.6,3.93
			s1.07,3.27,2.6,3.93v0.36h1.72l0,0l0,0h1.72v-0.36c1.53-0.66,2.59-2.17,2.59-3.93s-1.07-3.27-2.59-3.93V70.72l12.28-12.21v19.17
			c-1.53,0.66-2.59,2.17-2.59,3.93s1.07,3.27,2.59,3.93v0.36H240v-0.36c1.53-0.66,2.6-2.17,2.6-3.93s-1.07-3.27-2.6-3.93v-22.6
			L255.49,39.7z"/>
	</g>
</g>
<g>
	<polyline class="st2" points="374.76,197.63 427.14,197.63 427.14,118.28 379.17,118.28 379.17,176.64 427.14,176.64 	"/>
	<polyline class="st2" points="144.32,181 144.36,118.23 95.75,118.23 95.75,181 	"/>
	<polyline class="st2" points="214.06,113.84 214.06,176.56 166.19,176.56 166.19,113.84 	"/>
	<line class="st2" x1="239.29" y1="181" x2="239.29" y2="27.38"/>
	<line class="st2" x1="260.99" y1="27.38" x2="260.99" y2="181"/>
	<line class="st2" x1="282.8" y1="181" x2="282.8" y2="27.38"/>
	<rect x="309.55" y="118.28" class="st2" width="47.44" height="58.36"/>
	<line class="st2" x1="452.19" y1="113.84" x2="452.19" y2="180.92"/>
	<line class="st2" x1="452.19" y1="94.07" x2="452.19" y2="106.06"/>
	<polyline class="st2" points="527.77,176.64 474.65,176.64 474.65,118.28 527.77,118.28 	"/>
</g>
</svg>
