<?xml version="1.0" encoding="utf-8"?>
<!-- Generator: Adobe Illustrator 26.0.2, SVG Export Plug-In . SVG Version: 6.00 Build 0)  -->
<svg version="1.1" id="Layer_1" xmlns="http://www.w3.org/2000/svg" xmlns:xlink="http://www.w3.org/1999/xlink" x="0px" y="0px"
	 viewBox="0 0 598.96 252.04" style="enable-background:new 0 0 598.96 252.04;" xml:space="preserve">
<style type="text/css">
	.st0{fill:#CCCCCC;}
	.st1{fill:#58595B;}
	.st2{fill:none;stroke:#DB9C44;stroke-width:7;stroke-miterlimit:10;}
</style>
<g>
	<g>
		<path class="st0" d="M417.19,154.03v-38.59l22.1-21.97V0.3h-3.44v91.75l-22.1,21.97v40.01c-1.53,0.66-2.6,2.17-2.6,3.93
			s1.07,3.27,2.6,3.93v0.36h1.72l0,0l0,0h1.72v-0.36c1.53-0.66,2.59-2.17,2.59-3.93S418.72,154.69,417.19,154.03z"/>
		<path class="st0" d="M564.22,84.54V13.72L550.71,0.3h-4.87l14.93,14.84v69.39c-1.53,0.66-2.6,2.17-2.6,3.93s1.07,3.27,2.6,3.93
			v0.36h3.44V92.4c1.53-0.66,2.59-2.17,2.59-3.93S565.75,85.2,564.22,84.54z"/>
		<path class="st0" d="M534.77,176.72v-73.19L494.91,63.9V34.56h34.45V0.3h-3.44v30.83h-34.45v29.34l-11.12-11.05V20.08l19.9-19.78
			h-4.87L476.9,18.66V46l-28.49-28.32V0.3h-3.44v18.8l31.94,31.74v55.11h-17.15l-18.49,18.37v59.5c-1.53,0.66-2.59,2.17-2.59,3.93
			s1.07,3.27,2.59,3.93v0.36h1.72l0,0l0,0h1.72v-0.36c1.53-0.66,2.6-2.17,2.6-3.93s-1.07-3.27-2.6-3.93v-58.08l16.47-16.37h15.72
			v33.24c-1.53,0.66-2.6,2.17-2.6,3.93s1.07,3.27,2.6,3.93v0.36h1.72l0,0l0,0h1.72v-0.36c1.53-0.66,2.59-2.17,2.59-3.93
			s-1.07-3.27-2.59-3.93v-33.24h14.57V68.74l36.42,36.2v71.78c-1.53,0.66-2.59,2.17-2.59,3.93s1.07,3.27,2.59,3.93v0.36h1.72l0,0
			l0,0h1.72v-0.36c1.53-0.66,2.6-2.17,2.6-3.93C537.37,178.89,536.3,177.38,534.77,176.72z M491.46,105.95h-11.12V54.26l11.12,11.05
			V105.95z"/>
		<path class="st0" d="M401.79,113.64V50.56l28.5-28.33V0.3h-3.44v20.51l-28.5,28.33v64.5c-1.53,0.66-2.59,2.17-2.59,3.93
			s1.07,3.27,2.59,3.93v0.36h1.72l0,0l0,0h1.72v-0.36c1.53-0.66,2.59-2.17,2.59-3.93S403.32,114.3,401.79,113.64z"/>
		<path class="st0" d="M387.97,102.47V0.3h-3.44v100.75l-28.31,28.13v54.64c-1.53,0.66-2.6,2.17-2.6,3.93s1.07,3.27,2.6,3.93v0.36
			h1.72l0,0l0,0h1.72v-0.36c1.53-0.66,2.59-2.17,2.59-3.93s-1.07-3.27-2.59-3.93V130.6L387.97,102.47z"/>
		<path class="st0" d="M345.67,99.24V73.97h18.34V0.3h-3.44v70.25h-14.89v-56.2L331.54,0.3h-4.87l15.56,15.47v54.79h-42.2V0.3h-3.44
			v70.25h-32.47v52.02l54.41,54.08v24.29c-1.53,0.66-2.59,2.17-2.59,3.93s1.07,3.27,2.59,3.93v0.36h3.44v-0.36
			c1.53-0.66,2.59-2.17,2.59-3.93s-1.07-3.27-2.59-3.93v-25.71l-54.41-54.08V73.97h29.02v33.26c-1.53,0.66-2.59,2.17-2.59,3.93
			s1.07,3.27,2.59,3.93v0.36h1.72l0,0l0,0h1.72v-0.36c1.53-0.66,2.6-2.17,2.6-3.93s-1.07-3.27-2.6-3.93V73.97h42.2v25.27
			c-1.53,0.66-2.59,2.17-2.59,3.93s1.07,3.27,2.59,3.93v0.36h1.72l0,0l0,0h1.72v-0.36c1.53-0.66,2.6-2.17,2.6-3.93
			C348.27,101.41,347.2,99.9,345.67,99.24z"/>
		<path class="st0" d="M76.31,0.3v24.32c-1.53,0.66-2.59,2.17-2.59,3.93s1.07,3.27,2.59,3.93v0.36h1.72l0,0l0,0h1.72v-0.36
			c1.53-0.66,2.6-2.17,2.6-3.93s-1.07-3.27-2.6-3.93V0.3H76.31z"/>
		<path class="st0" d="M206.77,107.23V22.87L187.83,4.04V0.3h-3.44v5.16l18.95,18.83v82.94c-1.53,0.66-2.59,2.17-2.59,3.93
			s1.07,3.27,2.59,3.93v0.36h1.72l0,0l0,0h1.72v-0.36c1.53-0.66,2.59-2.17,2.59-3.93S208.3,107.89,206.77,107.23z"/>
		<path class="st0" d="M157.11,23.43L180.39,0.3h-4.87l-21.85,21.72v9.12H137.3V0.3h-3.44v30.83h-20.67V12.7l11.8-11.73V0.3h-4.2
			l-7.6,7.56V0.3h-3.44v10.98L91.22,29.69V60.1H44.58V14.87L58.15,1.39v34.7c-1.53,0.66-2.59,2.17-2.59,3.93s1.07,3.27,2.59,3.93
			v0.36h1.72l0,0l0,0h1.72v-0.36c1.53-0.66,2.59-2.17,2.59-3.93s-1.07-3.27-2.59-3.93V0.3h-7.21L41.14,13.46v50.07h50.08v35.72
			c-1.53,0.66-2.59,2.17-2.59,3.93s1.07,3.27,2.59,3.93v0.36h1.72l0,0l0,0h1.72v-0.36c1.53-0.66,2.59-2.17,2.59-3.93
			s-1.07-3.27-2.59-3.93V63.53h23.12v30.01c-1.53,0.66-2.59,2.17-2.59,3.93s1.07,3.27,2.59,3.93v0.36h1.72l0,0l0,0h1.72v-0.36
			c1.53-0.66,2.59-2.17,2.59-3.93s-1.07-3.27-2.59-3.93V60.1H94.66V31.11l15.09-14.99v18.44h24.11V45.6
			c-1.53,0.66-2.59,2.17-2.59,3.93c0,1.76,1.07,3.27,2.59,3.93v0.36h1.72l0,0l0,0h1.72v-0.36c1.53-0.66,2.59-2.17,2.59-3.93
			c0-1.76-1.07-3.27-2.59-3.93V34.56h16.36v53.66l-15.79,15.69v50.12c-1.53,0.66-2.59,2.17-2.59,3.93s1.07,3.27,2.59,3.93v0.36h1.72
			l0,0l0,0h1.72v-0.36c1.53-0.66,2.59-2.17,2.59-3.93s-1.07-3.27-2.59-3.93v-48.7l12.34-12.27v20.58c-1.53,0.66-2.59,2.17-2.59,3.93
			s1.07,3.27,2.59,3.93v0.36h1.72l0,0l0,0h1.72v-0.36c1.53-0.66,2.59-2.17,2.59-3.93s-1.07-3.27-2.59-3.93V89.63l27.27-27.11V31.13
			h-27.27v-7.7H157.11z M180.94,34.56v26.55l-23.83,23.68V34.56H180.94z"/>
		<path class="st0" d="M27.93,47.31V0.3h-3.44v45.59L6.93,63.34v30.2c-1.53,0.66-2.6,2.17-2.6,3.93s1.07,3.27,2.6,3.93v0.36h1.72
			l0,0l0,0h1.72v-0.36c1.53-0.66,2.59-2.17,2.59-3.93s-1.07-3.27-2.59-3.93V64.76L27.93,47.31z"/>
		<path class="st0" d="M36.75,77.69V0.3H33.3v77.39c-1.53,0.66-2.59,2.17-2.59,3.93s1.07,3.27,2.59,3.93v0.36h3.44v-0.36
			c1.53-0.66,2.59-2.17,2.59-3.93C39.34,79.86,38.27,78.35,36.75,77.69z"/>
		<path class="st0" d="M255.49,39.7V0.3h-3.44v37.98L240,50.25V0.3h-3.44v53.38L220.83,69.3v66.46c-1.53,0.66-2.6,2.17-2.6,3.93
			s1.07,3.27,2.6,3.93v0.36h1.72l0,0l0,0h1.72v-0.36c1.53-0.66,2.59-2.17,2.59-3.93s-1.07-3.27-2.59-3.93V70.72l12.28-12.21v19.17
			c-1.53,0.66-2.59,2.17-2.59,3.93s1.07,3.27,2.59,3.93v0.36H240v-0.36c1.53-0.66,2.6-2.17,2.6-3.93s-1.07-3.27-2.6-3.93v-22.6
			L255.49,39.7z"/>
	</g>
	<g>
		<path class="st1" d="M205.98,66.05V9.76l-9.52-9.46h-4.25L202.97,11v55.05c-1.33,0.58-2.26,1.89-2.26,3.43s0.93,2.85,2.26,3.43
			v0.31h1.5l0,0l0,0h1.5v-0.31c1.33-0.58,2.26-1.89,2.26-3.43C208.24,67.94,207.31,66.62,205.98,66.05z"/>
		<path class="st1" d="M192.54,101.29V66.38l-19.29-19.17V0.3h-3.01v48.15l19.29,19.17v33.68c-1.33,0.58-2.26,1.89-2.26,3.43
			s0.93,2.85,2.26,3.43v0.31h1.5l0,0l0,0h1.5v-0.31c1.33-0.58,2.26-1.89,2.26-3.43C194.81,103.18,193.87,101.87,192.54,101.29z"/>
		<path class="st1" d="M242.74,127.29V79.61l-24.7-24.55V0.3h-3.01v56l24.7,24.55v46.44c-1.33,0.58-2.26,1.89-2.26,3.43
			s0.93,2.85,2.26,3.43v0.31h1.5l0,0l0,0h1.5v-0.31c1.33-0.58,2.26-1.89,2.26-3.43C245.01,129.19,244.07,127.87,242.74,127.29z"/>
		<path class="st1" d="M294.78,0.3h-3.01v28.15h-36.82V0.3h-3.01v28.15h-13V0.3h-3.01v31.14h16v22.05
			c-1.33,0.58-2.26,1.89-2.26,3.43s0.93,2.85,2.26,3.43v0.31h1.5l0,0l0,0h1.5v-0.31c1.33-0.58,2.26-1.89,2.26-3.43
			s-0.93-2.85-2.26-3.43V31.43h36.82v29.02c-1.33,0.58-2.26,1.89-2.26,3.43c0,1.54,0.93,2.85,2.26,3.43v0.31h1.5l0,0l0,0h1.5v-0.31
			c1.33-0.58,2.26-1.89,2.26-3.43s-0.93-2.85-2.26-3.43V31.43h25.33V72.6l-47.49,47.2v22.43c-1.33,0.58-2.26,1.89-2.26,3.43
			s0.93,2.85,2.26,3.43v0.31h3.01v-0.31c1.33-0.58,2.26-1.89,2.26-3.43s-0.93-2.85-2.26-3.43v-21.2l47.49-47.2V28.45h-28.33V0.3
			H294.78z"/>
		<path class="st1" d="M48.01,76.39V33.55L28.57,14.23V0.3h-3.01v15.17L45,34.78v41.61c-1.33,0.58-2.26,1.89-2.26,3.43
			s0.93,2.85,2.26,3.43v0.31h1.5l0,0l0,0H48v-0.31c1.33-0.58,2.26-1.89,2.26-3.43C50.27,78.29,49.34,76.97,48.01,76.39z"/>
		<path class="st1" d="M168.53,127.29V75.37L152.4,59.34h-14.96v-48.1l11-10.94h-4.25l-6.76,6.72V0.3h-3.01v9.71l-9.71,9.65V0.3
			h-3.01v22.34L86.92,57.22v63.87c-1.33,0.58-2.26,1.89-2.26,3.43s0.93,2.85,2.26,3.43v0.31h1.5l0,0l0,0h1.5v-0.31
			c1.33-0.58,2.26-1.89,2.26-3.43s-0.93-2.85-2.26-3.43V58.46l31.78-31.59v35.46h12.71v29.01c-1.33,0.58-2.26,1.89-2.26,3.43
			s0.93,2.85,2.26,3.43v0.31h1.5l0,0l0,0h1.5V98.2c1.33-0.58,2.26-1.89,2.26-3.43s-0.93-2.85-2.26-3.43V62.32h13.72L165.5,76.6
			v50.69c-1.33,0.58-2.26,1.89-2.26,3.43s0.93,2.85,2.26,3.43v0.31h1.5l0,0l0,0h1.5v-0.31c1.33-0.58,2.26-1.89,2.26-3.43
			C170.79,129.19,169.86,127.87,168.53,127.29z M134.42,59.34h-9.71V23.88l9.71-9.65V59.34z"/>
		<path class="st1" d="M64.23,40.65V0.3h-3.01v40.35c-1.33,0.58-2.26,1.89-2.26,3.43s0.93,2.85,2.26,3.43v0.31h3.01v-0.31
			c1.33-0.58,2.26-1.89,2.26-3.43C66.5,42.54,65.56,41.23,64.23,40.65z"/>
		<path class="st1" d="M497.59,1.8c0,1.54,0.93,2.85,2.26,3.43v0.31h1.5l0,0l0,0h1.5v-0.3c1.33-0.58,2.26-1.89,2.26-3.43
			c0-0.54-0.12-1.05-0.33-1.51h-6.88C497.71,0.76,497.59,1.27,497.59,1.8z"/>
		<path class="st1" d="M517.7,22.31V0.3h-3.01v19.03H474V0.3h-3v19.03h-23.18V48.5c-1.33,0.58-2.26,1.89-2.26,3.43
			s0.93,2.85,2.26,3.43v0.31h1.5l0,0l0,0h1.5v-0.31c1.33-0.58,2.26-1.89,2.26-3.43s-0.93-2.85-2.26-3.43V22.31H471v31.17
			c-1.33,0.58-2.26,1.89-2.26,3.43s0.93,2.85,2.26,3.43v0.31h1.5l0,0l0,0h1.5v-0.31c1.33-0.58,2.26-1.89,2.26-3.43
			s-0.93-2.85-2.26-3.43V22.31H517.7z"/>
		<path class="st1" d="M433.28,101.29V57.55L419.5,43.86V0.3h-3.01v40.57L395.71,20.2V0.3h-3.01v21.14l23.8,23.65v20.95
			c-1.33,0.58-2.26,1.89-2.26,3.43s0.93,2.85,2.26,3.43v0.31h1.5l0,0l0,0h1.5V72.9c1.33-0.58,2.26-1.89,2.26-3.43
			s-0.93-2.85-2.26-3.43V48.08l10.77,10.71v42.5c-1.33,0.58-2.26,1.89-2.26,3.43s0.93,2.85,2.26,3.43v0.31h1.5l0,0l0,0h1.5v-0.31
			c1.33-0.58,2.26-1.89,2.26-3.43C435.55,103.19,434.61,101.87,433.28,101.29z"/>
		<path class="st1" d="M376.17,60.46V0.3h-3.01v60.16c-1.33,0.58-2.26,1.89-2.26,3.43s0.93,2.85,2.26,3.43v0.31h1.5l0,0l0,0h1.5
			v-0.31c1.33-0.58,2.26-1.89,2.26-3.43C378.43,62.35,377.5,61.03,376.17,60.46z"/>
		<path class="st1" d="M436.79,6.67V0.3h-3.01v6.38c-1.33,0.58-2.26,1.89-2.26,3.43s0.93,2.85,2.26,3.43v0.31h1.5l0,0l0,0h1.5v-0.31
			c1.33-0.58,2.26-1.89,2.26-3.43S438.12,7.25,436.79,6.67z"/>
		<path class="st1" d="M575.07,34.67V0.3h-3.01v34.38c-1.33,0.58-2.26,1.89-2.26,3.43s0.93,2.85,2.26,3.43v0.31h3.01v-0.31
			c1.33-0.58,2.26-1.89,2.26-3.43S576.4,35.25,575.07,34.67z"/>
		<path class="st1" d="M585.32,26.93v-12.9l13.64-13.55V0.3h-4.07l-12.57,12.5v14.13c-1.33,0.58-2.26,1.89-2.26,3.43
			s0.93,2.85,2.26,3.43v0.31h3.01v-0.31c1.33-0.58,2.26-1.89,2.26-3.43S586.65,27.5,585.32,26.93z"/>
		<path class="st1" d="M524.54,34.67V0.3h-3.01v34.38c-1.33,0.58-2.26,1.89-2.26,3.43s0.93,2.85,2.26,3.43v0.31h3.01v-0.31
			c1.33-0.58,2.26-1.89,2.26-3.43C526.81,36.57,525.88,35.25,524.54,34.67z"/>
		<path class="st1" d="M547.56,48.5V22.15L532.23,6.92V0.3h-3.01v7.86l15.32,15.23V48.5c-1.33,0.58-2.26,1.89-2.26,3.43
			s0.93,2.85,2.26,3.43v0.31h1.5l0,0l0,0h1.5v-0.31c1.33-0.58,2.26-1.89,2.26-3.43C549.82,50.4,548.89,49.08,547.56,48.5z"/>
		<path class="st1" d="M360.89,85.36v-58l-13.72-13.64V0.3h-3.01v10.43L333.67,0.3h-3.02v1.22l13.52,13.43v19.72
			c-1.33,0.58-2.26,1.89-2.26,3.43s0.93,2.85,2.26,3.43v0.31h3.01v-0.31c1.33-0.58,2.26-1.89,2.26-3.43s-0.93-2.85-2.26-3.43V17.94
			l10.72,10.65v56.76c-1.33,0.58-2.26,1.89-2.26,3.43s0.93,2.85,2.26,3.43v0.31h1.5l0,0l0,0h1.5v-0.31
			c1.33-0.58,2.26-1.89,2.26-3.43C363.15,87.25,362.22,85.93,360.89,85.36z"/>
	</g>
</g>
<g>
	<polyline class="st2" points="364.62,236.05 402.96,236.05 402.96,177.98 367.85,177.98 367.85,220.69 402.96,220.69 	"/>
	<polyline class="st2" points="195.98,223.88 196.01,177.94 160.43,177.94 160.43,223.88 	"/>
	<polyline class="st2" points="247.02,174.73 247.02,220.63 211.98,220.63 211.98,174.73 	"/>
	<line class="st2" x1="265.48" y1="223.88" x2="265.48" y2="111.45"/>
	<line class="st2" x1="281.36" y1="111.45" x2="281.36" y2="223.88"/>
	<line class="st2" x1="297.32" y1="223.88" x2="297.32" y2="111.45"/>
	<rect x="316.9" y="177.98" class="st2" width="34.72" height="42.71"/>
	<line class="st2" x1="421.29" y1="174.73" x2="421.29" y2="223.82"/>
	<line class="st2" x1="421.29" y1="160.26" x2="421.29" y2="169.03"/>
	<polyline class="st2" points="476.6,220.69 437.73,220.69 437.73,177.98 476.6,177.98 	"/>
</g>
</svg>
